M48
INCH
T1C0.0157
T2C0.0354
%
G90
G05
T1
X3.2402Y-4.6024
X3.4409Y-4.6063
X3.4449Y-4.4882
X3.6299Y-4.4134
X3.6299Y-4.563
X3.7913Y-4.374
X3.815Y-4.4882
X4.0709Y-4.4291
X4.0735Y-4.5971
X4.1339Y-4.5433
X4.3858Y-4.4291
X4.3889Y-4.5975
X4.4488Y-4.5433
X4.7047Y-4.5945
X4.7087Y-4.4606
X5.0748Y-4.5452
X5.1299Y-4.3976
X5.2913Y-4.4882
X5.3307Y-4.374
X5.3701Y-4.4882
X5.4488Y-4.5079
X5.4882Y-4.374
X5.6496Y-4.4016
X5.6496Y-4.6024
T2
X5.9144Y-4.4374
X5.9144Y-4.5374
T0
M30
