%TF.GenerationSoftware,KiCad,Pcbnew,7.0.2*%
%TF.CreationDate,2023-09-14T23:45:26-06:00*%
%TF.ProjectId,ControlPanel,436f6e74-726f-46c5-9061-6e656c2e6b69,rev?*%
%TF.SameCoordinates,Original*%
%TF.FileFunction,Legend,Top*%
%TF.FilePolarity,Positive*%
%FSLAX46Y46*%
G04 Gerber Fmt 4.6, Leading zero omitted, Abs format (unit mm)*
G04 Created by KiCad (PCBNEW 7.0.2) date 2023-09-14 23:45:26*
%MOMM*%
%LPD*%
G01*
G04 APERTURE LIST*
G04 Aperture macros list*
%AMRoundRect*
0 Rectangle with rounded corners*
0 $1 Rounding radius*
0 $2 $3 $4 $5 $6 $7 $8 $9 X,Y pos of 4 corners*
0 Add a 4 corners polygon primitive as box body*
4,1,4,$2,$3,$4,$5,$6,$7,$8,$9,$2,$3,0*
0 Add four circle primitives for the rounded corners*
1,1,$1+$1,$2,$3*
1,1,$1+$1,$4,$5*
1,1,$1+$1,$6,$7*
1,1,$1+$1,$8,$9*
0 Add four rect primitives between the rounded corners*
20,1,$1+$1,$2,$3,$4,$5,0*
20,1,$1+$1,$4,$5,$6,$7,0*
20,1,$1+$1,$6,$7,$8,$9,0*
20,1,$1+$1,$8,$9,$2,$3,0*%
G04 Aperture macros list end*
%ADD10C,0.150000*%
%ADD11C,0.127000*%
%ADD12C,0.200000*%
%ADD13C,0.120000*%
%ADD14RoundRect,0.102000X-0.300000X0.925000X-0.300000X-0.925000X0.300000X-0.925000X0.300000X0.925000X0*%
%ADD15RoundRect,0.102000X-0.300000X0.825000X-0.300000X-0.825000X0.300000X-0.825000X0.300000X0.825000X0*%
%ADD16RoundRect,0.102000X0.300000X-0.925000X0.300000X0.925000X-0.300000X0.925000X-0.300000X-0.925000X0*%
%ADD17C,3.200000*%
%ADD18R,1.300000X1.300000*%
%ADD19R,2.000000X1.300000*%
%ADD20R,3.150000X1.000000*%
%ADD21RoundRect,0.135000X0.185000X-0.135000X0.185000X0.135000X-0.185000X0.135000X-0.185000X-0.135000X0*%
%ADD22R,1.800000X1.800000*%
%ADD23C,1.800000*%
G04 APERTURE END LIST*
D10*
%TO.C,R3*%
G36*
X148899465Y-113998074D02*
G01*
X148631286Y-114155366D01*
X148622234Y-114160663D01*
X148613517Y-114165930D01*
X148605137Y-114171166D01*
X148595133Y-114177668D01*
X148585654Y-114184122D01*
X148576700Y-114190529D01*
X148568271Y-114196887D01*
X148560267Y-114203240D01*
X148552739Y-114209629D01*
X148544335Y-114217343D01*
X148536619Y-114225108D01*
X148529589Y-114232925D01*
X148525284Y-114238164D01*
X148519291Y-114246170D01*
X148513950Y-114254433D01*
X148508544Y-114264399D01*
X148504026Y-114274716D01*
X148500860Y-114283838D01*
X148498204Y-114293312D01*
X148496097Y-114303232D01*
X148494540Y-114313599D01*
X148493533Y-114324413D01*
X148493075Y-114335673D01*
X148493044Y-114339525D01*
X148493044Y-114405471D01*
X148899465Y-114405471D01*
X148899465Y-114568137D01*
X147914677Y-114568137D01*
X147914677Y-114405471D01*
X148047301Y-114405471D01*
X148360421Y-114405471D01*
X148360421Y-114269428D01*
X148360140Y-114257740D01*
X148359299Y-114246339D01*
X148357898Y-114235224D01*
X148355936Y-114224395D01*
X148353414Y-114213853D01*
X148350331Y-114203596D01*
X148348941Y-114199574D01*
X148345109Y-114189790D01*
X148340789Y-114180435D01*
X148335979Y-114171510D01*
X148330680Y-114163014D01*
X148324893Y-114154947D01*
X148318616Y-114147310D01*
X148315968Y-114144375D01*
X148309025Y-114137304D01*
X148301629Y-114130746D01*
X148293779Y-114124701D01*
X148285476Y-114119169D01*
X148276720Y-114114149D01*
X148267511Y-114109642D01*
X148263700Y-114107983D01*
X148253828Y-114104183D01*
X148243598Y-114101028D01*
X148233010Y-114098516D01*
X148222065Y-114096649D01*
X148210761Y-114095425D01*
X148199100Y-114094845D01*
X148194335Y-114094794D01*
X148181641Y-114095187D01*
X148169480Y-114096365D01*
X148157851Y-114098329D01*
X148146754Y-114101079D01*
X148136189Y-114104615D01*
X148126157Y-114108936D01*
X148116658Y-114114043D01*
X148107690Y-114119936D01*
X148099255Y-114126614D01*
X148091353Y-114134078D01*
X148086380Y-114139490D01*
X148079396Y-114148214D01*
X148073099Y-114157625D01*
X148067489Y-114167723D01*
X148062566Y-114178508D01*
X148058330Y-114189980D01*
X148054781Y-114202139D01*
X148051919Y-114214984D01*
X148049744Y-114228517D01*
X148048255Y-114242736D01*
X148047645Y-114252598D01*
X148047339Y-114262764D01*
X148047301Y-114267962D01*
X148047301Y-114405471D01*
X147914677Y-114405471D01*
X147914677Y-114243782D01*
X147914821Y-114230873D01*
X147915253Y-114218157D01*
X147915972Y-114205634D01*
X147916979Y-114193304D01*
X147918273Y-114181167D01*
X147919855Y-114169224D01*
X147921725Y-114157474D01*
X147923882Y-114145917D01*
X147926327Y-114134553D01*
X147929060Y-114123383D01*
X147931042Y-114116043D01*
X147934212Y-114105231D01*
X147937679Y-114094685D01*
X147941442Y-114084405D01*
X147945502Y-114074392D01*
X147949857Y-114064645D01*
X147954509Y-114055164D01*
X147959457Y-114045949D01*
X147964701Y-114037000D01*
X147970242Y-114028317D01*
X147976079Y-114019901D01*
X147980134Y-114014438D01*
X147986459Y-114006498D01*
X147993066Y-113998888D01*
X147999957Y-113991608D01*
X148007131Y-113984659D01*
X148014588Y-113978041D01*
X148022329Y-113971754D01*
X148030354Y-113965797D01*
X148038661Y-113960170D01*
X148047252Y-113954874D01*
X148056126Y-113949909D01*
X148062200Y-113946783D01*
X148071551Y-113942418D01*
X148081194Y-113938482D01*
X148091128Y-113934976D01*
X148101355Y-113931899D01*
X148111874Y-113929252D01*
X148122684Y-113927033D01*
X148133787Y-113925245D01*
X148145182Y-113923885D01*
X148156868Y-113922955D01*
X148168846Y-113922454D01*
X148176994Y-113922358D01*
X148189748Y-113922603D01*
X148202243Y-113923335D01*
X148214478Y-113924557D01*
X148226453Y-113926266D01*
X148238169Y-113928465D01*
X148249626Y-113931151D01*
X148260823Y-113934326D01*
X148271760Y-113937990D01*
X148282362Y-113942043D01*
X148292674Y-113946508D01*
X148302695Y-113951385D01*
X148312427Y-113956675D01*
X148321868Y-113962376D01*
X148331020Y-113968490D01*
X148339881Y-113975016D01*
X148348453Y-113981954D01*
X148356665Y-113989224D01*
X148364573Y-113996868D01*
X148372175Y-114004886D01*
X148379471Y-114013278D01*
X148386463Y-114022044D01*
X148393149Y-114031184D01*
X148399530Y-114040698D01*
X148405605Y-114050586D01*
X148411360Y-114060814D01*
X148416780Y-114071347D01*
X148421863Y-114082185D01*
X148426610Y-114093328D01*
X148431022Y-114104777D01*
X148435098Y-114116532D01*
X148438838Y-114128591D01*
X148442242Y-114140956D01*
X148444929Y-114140956D01*
X148450810Y-114131130D01*
X148456916Y-114121802D01*
X148463244Y-114112972D01*
X148469796Y-114104640D01*
X148476570Y-114096806D01*
X148478878Y-114094305D01*
X148485791Y-114086872D01*
X148492789Y-114079594D01*
X148499873Y-114072470D01*
X148507043Y-114065500D01*
X148514298Y-114058685D01*
X148516736Y-114056448D01*
X148524252Y-114049770D01*
X148532146Y-114043110D01*
X148540418Y-114036467D01*
X148549068Y-114029841D01*
X148558095Y-114023232D01*
X148561188Y-114021033D01*
X148570722Y-114014309D01*
X148579100Y-114008510D01*
X148587872Y-114002531D01*
X148597037Y-113996374D01*
X148606595Y-113990038D01*
X148616548Y-113983522D01*
X148618585Y-113982198D01*
X148899465Y-113807076D01*
X148899465Y-113998074D01*
G37*
G36*
X148861607Y-113733803D02*
G01*
X148710176Y-113733803D01*
X148719670Y-113721678D01*
X148728552Y-113709360D01*
X148736821Y-113696849D01*
X148744477Y-113684145D01*
X148751521Y-113671249D01*
X148757952Y-113658160D01*
X148763771Y-113644879D01*
X148768978Y-113631404D01*
X148773572Y-113617737D01*
X148777553Y-113603877D01*
X148780922Y-113589825D01*
X148783678Y-113575579D01*
X148785822Y-113561141D01*
X148787353Y-113546511D01*
X148788272Y-113531687D01*
X148788578Y-113516671D01*
X148788401Y-113504552D01*
X148787868Y-113492743D01*
X148786981Y-113481243D01*
X148785739Y-113470051D01*
X148784142Y-113459169D01*
X148782190Y-113448596D01*
X148779883Y-113438332D01*
X148777221Y-113428377D01*
X148774204Y-113418732D01*
X148770832Y-113409395D01*
X148765109Y-113395970D01*
X148758588Y-113383240D01*
X148751268Y-113371206D01*
X148743149Y-113359867D01*
X148734304Y-113349348D01*
X148724897Y-113339863D01*
X148714927Y-113331413D01*
X148704395Y-113323998D01*
X148693300Y-113317617D01*
X148681643Y-113312271D01*
X148669423Y-113307960D01*
X148656641Y-113304684D01*
X148643297Y-113302442D01*
X148629390Y-113301235D01*
X148619806Y-113301005D01*
X148609288Y-113301255D01*
X148599103Y-113302005D01*
X148589252Y-113303257D01*
X148570552Y-113307260D01*
X148553188Y-113313265D01*
X148537160Y-113321271D01*
X148522467Y-113331280D01*
X148509110Y-113343289D01*
X148497089Y-113357301D01*
X148486403Y-113373314D01*
X148481561Y-113382071D01*
X148477053Y-113391329D01*
X148472879Y-113401087D01*
X148469039Y-113411345D01*
X148465533Y-113422104D01*
X148462360Y-113433364D01*
X148459522Y-113445123D01*
X148457018Y-113457383D01*
X148454847Y-113470144D01*
X148453011Y-113483405D01*
X148451508Y-113497166D01*
X148450339Y-113511428D01*
X148449504Y-113526190D01*
X148449003Y-113541452D01*
X148448836Y-113557215D01*
X148448836Y-113633419D01*
X148321097Y-113633419D01*
X148321097Y-113560635D01*
X148320947Y-113546645D01*
X148320497Y-113533099D01*
X148319747Y-113519998D01*
X148318697Y-113507340D01*
X148317347Y-113495127D01*
X148315696Y-113483358D01*
X148313746Y-113472033D01*
X148311496Y-113461152D01*
X148308945Y-113450715D01*
X148306095Y-113440722D01*
X148302944Y-113431173D01*
X148295743Y-113413409D01*
X148287341Y-113397420D01*
X148277739Y-113383208D01*
X148266937Y-113370773D01*
X148254935Y-113360114D01*
X148241733Y-113351232D01*
X148227330Y-113344126D01*
X148211727Y-113338796D01*
X148194924Y-113335243D01*
X148176920Y-113333467D01*
X148167469Y-113333245D01*
X148150344Y-113333937D01*
X148134324Y-113336015D01*
X148119409Y-113339479D01*
X148105599Y-113344327D01*
X148092894Y-113350561D01*
X148081293Y-113358180D01*
X148070797Y-113367185D01*
X148061406Y-113377575D01*
X148053120Y-113389350D01*
X148045939Y-113402510D01*
X148039862Y-113417056D01*
X148034891Y-113432987D01*
X148031024Y-113450304D01*
X148028262Y-113469006D01*
X148027295Y-113478876D01*
X148026604Y-113489093D01*
X148026190Y-113499656D01*
X148026052Y-113510565D01*
X148026313Y-113522884D01*
X148027098Y-113535111D01*
X148028405Y-113547247D01*
X148030235Y-113559291D01*
X148032587Y-113571244D01*
X148035463Y-113583105D01*
X148038861Y-113594875D01*
X148042783Y-113606552D01*
X148047227Y-113618139D01*
X148052194Y-113629633D01*
X148057683Y-113641037D01*
X148063696Y-113652348D01*
X148070231Y-113663568D01*
X148077290Y-113674696D01*
X148084871Y-113685733D01*
X148092975Y-113696678D01*
X147954245Y-113696678D01*
X147947560Y-113683989D01*
X147941307Y-113671017D01*
X147935486Y-113657763D01*
X147930095Y-113644227D01*
X147925136Y-113630408D01*
X147920608Y-113616307D01*
X147916511Y-113601923D01*
X147912846Y-113587257D01*
X147909611Y-113572309D01*
X147906808Y-113557078D01*
X147904436Y-113541565D01*
X147902496Y-113525769D01*
X147900986Y-113509691D01*
X147899908Y-113493331D01*
X147899261Y-113476688D01*
X147899046Y-113459763D01*
X147899299Y-113443572D01*
X147900057Y-113427790D01*
X147901321Y-113412416D01*
X147903091Y-113397450D01*
X147905367Y-113382893D01*
X147908148Y-113368744D01*
X147911434Y-113355003D01*
X147915227Y-113341671D01*
X147919525Y-113328747D01*
X147924329Y-113316232D01*
X147929638Y-113304124D01*
X147935453Y-113292426D01*
X147941774Y-113281135D01*
X147948600Y-113270253D01*
X147955932Y-113259779D01*
X147963770Y-113249714D01*
X147972004Y-113240131D01*
X147980524Y-113231166D01*
X147989330Y-113222820D01*
X147998422Y-113215092D01*
X148007801Y-113207982D01*
X148017465Y-113201491D01*
X148027416Y-113195618D01*
X148037654Y-113190363D01*
X148048177Y-113185726D01*
X148058987Y-113181707D01*
X148070083Y-113178307D01*
X148081465Y-113175525D01*
X148093133Y-113173361D01*
X148105088Y-113171815D01*
X148117328Y-113170888D01*
X148129855Y-113170579D01*
X148141645Y-113170772D01*
X148153168Y-113171352D01*
X148164426Y-113172318D01*
X148175418Y-113173670D01*
X148186144Y-113175409D01*
X148196605Y-113177534D01*
X148206800Y-113180046D01*
X148216729Y-113182944D01*
X148226393Y-113186228D01*
X148235791Y-113189899D01*
X148244923Y-113193956D01*
X148253789Y-113198400D01*
X148262390Y-113203230D01*
X148270725Y-113208446D01*
X148278795Y-113214049D01*
X148286598Y-113220038D01*
X148294136Y-113226414D01*
X148301408Y-113233176D01*
X148308415Y-113240324D01*
X148315155Y-113247859D01*
X148321631Y-113255780D01*
X148327840Y-113264088D01*
X148333784Y-113272782D01*
X148339461Y-113281862D01*
X148344874Y-113291329D01*
X148350020Y-113301182D01*
X148354901Y-113311422D01*
X148359516Y-113322048D01*
X148363865Y-113333060D01*
X148367949Y-113344459D01*
X148371767Y-113356244D01*
X148375319Y-113368416D01*
X148378006Y-113368416D01*
X148379533Y-113355279D01*
X148381486Y-113342492D01*
X148383868Y-113330053D01*
X148386677Y-113317964D01*
X148389913Y-113306224D01*
X148393577Y-113294834D01*
X148397668Y-113283792D01*
X148402186Y-113273100D01*
X148407132Y-113262757D01*
X148412505Y-113252763D01*
X148418306Y-113243118D01*
X148424534Y-113233823D01*
X148431190Y-113224876D01*
X148438273Y-113216279D01*
X148445783Y-113208031D01*
X148453721Y-113200132D01*
X148461968Y-113192650D01*
X148470467Y-113185650D01*
X148479218Y-113179132D01*
X148488221Y-113173098D01*
X148497475Y-113167546D01*
X148506982Y-113162477D01*
X148516740Y-113157891D01*
X148526750Y-113153787D01*
X148537012Y-113150167D01*
X148547526Y-113147029D01*
X148558292Y-113144373D01*
X148569309Y-113142201D01*
X148580579Y-113140511D01*
X148592100Y-113139304D01*
X148603873Y-113138580D01*
X148615899Y-113138339D01*
X148632488Y-113138728D01*
X148648673Y-113139896D01*
X148664453Y-113141842D01*
X148679829Y-113144567D01*
X148694800Y-113148070D01*
X148709367Y-113152352D01*
X148723530Y-113157413D01*
X148737287Y-113163252D01*
X148750640Y-113169869D01*
X148763589Y-113177265D01*
X148776133Y-113185440D01*
X148788273Y-113194393D01*
X148800008Y-113204124D01*
X148811339Y-113214634D01*
X148822265Y-113225923D01*
X148832786Y-113237990D01*
X148842753Y-113250664D01*
X148852078Y-113263834D01*
X148860759Y-113277500D01*
X148868797Y-113291662D01*
X148876192Y-113306321D01*
X148882944Y-113321475D01*
X148889053Y-113337126D01*
X148894519Y-113353273D01*
X148899341Y-113369916D01*
X148903521Y-113387054D01*
X148907058Y-113404690D01*
X148909952Y-113422821D01*
X148912202Y-113441448D01*
X148913810Y-113460572D01*
X148914775Y-113480191D01*
X148915016Y-113490187D01*
X148915096Y-113500307D01*
X148914887Y-113518364D01*
X148914260Y-113535959D01*
X148913216Y-113553092D01*
X148911753Y-113569763D01*
X148909872Y-113585973D01*
X148907574Y-113601721D01*
X148904858Y-113617007D01*
X148901724Y-113631832D01*
X148898172Y-113646194D01*
X148894202Y-113660095D01*
X148889814Y-113673534D01*
X148885008Y-113686511D01*
X148879785Y-113699027D01*
X148874143Y-113711081D01*
X148868084Y-113722673D01*
X148861607Y-113733803D01*
G37*
D11*
%TO.C,J2*%
X127190614Y-112628074D02*
X127190614Y-115978074D01*
X127190614Y-112628074D02*
X130890614Y-112628074D01*
X127190614Y-115978074D02*
X130890614Y-115978074D01*
X142890614Y-112628074D02*
X146590614Y-112628074D01*
X146590614Y-112628074D02*
X146590614Y-115978074D01*
X146590614Y-115978074D02*
X142890614Y-115978074D01*
D12*
X142490614Y-111228074D02*
G75*
G03*
X142490614Y-111228074I-100000J0D01*
G01*
D13*
%TO.C,RV4*%
X113580000Y-111630000D02*
X113580000Y-116370000D01*
X113580000Y-111630000D02*
X114161000Y-111630000D01*
X113580000Y-116370000D02*
X114960000Y-116370000D01*
X115940000Y-111630000D02*
X116460000Y-111630000D01*
X117440000Y-116370000D02*
X118820000Y-116370000D01*
X118240000Y-111630000D02*
X118820000Y-111630000D01*
X118820000Y-111630000D02*
X118820000Y-116370000D01*
%TO.C,J1*%
X88160000Y-111970000D02*
X89600000Y-111970000D01*
X89600000Y-111400000D02*
X89600000Y-111970000D01*
X89600000Y-111400000D02*
X94800000Y-111400000D01*
X89600000Y-113490000D02*
X89600000Y-114510000D01*
X89600000Y-116030000D02*
X89600000Y-116600000D01*
X89600000Y-116600000D02*
X94800000Y-116600000D01*
X94800000Y-111400000D02*
X94800000Y-111970000D01*
X94800000Y-113490000D02*
X94800000Y-114510000D01*
X94800000Y-116030000D02*
X94800000Y-116600000D01*
%TO.C,R3*%
X148020000Y-112353641D02*
X148020000Y-112046359D01*
X148780000Y-112353641D02*
X148780000Y-112046359D01*
%TO.C,RV2*%
X97579999Y-111631016D02*
X97579999Y-116371016D01*
X97579999Y-111631016D02*
X98160999Y-111631016D01*
X97579999Y-116371016D02*
X98959999Y-116371016D01*
X99939999Y-111631016D02*
X100459999Y-111631016D01*
X101439999Y-116371016D02*
X102819999Y-116371016D01*
X102239999Y-111631016D02*
X102819999Y-111631016D01*
X102819999Y-111631016D02*
X102819999Y-116371016D01*
%TO.C,RV3*%
X105575216Y-111635011D02*
X105575216Y-116375011D01*
X105575216Y-111635011D02*
X106156216Y-111635011D01*
X105575216Y-116375011D02*
X106955216Y-116375011D01*
X107935216Y-111635011D02*
X108455216Y-111635011D01*
X109435216Y-116375011D02*
X110815216Y-116375011D01*
X110235216Y-111635011D02*
X110815216Y-111635011D01*
X110815216Y-111635011D02*
X110815216Y-116375011D01*
%TO.C,RV1*%
X81583957Y-111632886D02*
X81583957Y-116372886D01*
X81583957Y-111632886D02*
X82164957Y-111632886D01*
X81583957Y-116372886D02*
X82963957Y-116372886D01*
X83943957Y-111632886D02*
X84463957Y-111632886D01*
X85443957Y-116372886D02*
X86823957Y-116372886D01*
X86243957Y-111632886D02*
X86823957Y-111632886D01*
X86823957Y-111632886D02*
X86823957Y-116372886D01*
%TD*%
%LPC*%
D14*
%TO.C,J2*%
X142390614Y-112603074D03*
D15*
X142390614Y-116353074D03*
X141390614Y-116353074D03*
X140390614Y-116353074D03*
X139390614Y-116353074D03*
X138390614Y-116353074D03*
X137390614Y-116353074D03*
X136390614Y-116353074D03*
X135390614Y-116353074D03*
X134390614Y-116353074D03*
X133390614Y-116353074D03*
X132390614Y-116353074D03*
X131390614Y-116353074D03*
D14*
X141390614Y-112603074D03*
X140390614Y-112603074D03*
X139390614Y-112603074D03*
X138390614Y-112603074D03*
X137390614Y-112603074D03*
D16*
X136390614Y-112603074D03*
X135390614Y-112603074D03*
X134390614Y-112603074D03*
X133390614Y-112603074D03*
X132390614Y-112603074D03*
X131390614Y-112603074D03*
%TD*%
D17*
%TO.C,RV4*%
X116200000Y-114000000D03*
D18*
X117350000Y-111250000D03*
D19*
X116200000Y-116750000D03*
D18*
X115050000Y-111250000D03*
%TD*%
D20*
%TO.C,J1*%
X89675000Y-112730000D03*
X94725000Y-112730000D03*
X89675000Y-115270000D03*
X94725000Y-115270000D03*
%TD*%
D21*
%TO.C,R3*%
X148400000Y-112710000D03*
X148400000Y-111690000D03*
%TD*%
D22*
%TO.C,D1*%
X150225000Y-115250000D03*
D23*
X150225000Y-112710000D03*
%TD*%
D17*
%TO.C,RV2*%
X100199999Y-114001016D03*
D18*
X101349999Y-111251016D03*
D19*
X100199999Y-116751016D03*
D18*
X99049999Y-111251016D03*
%TD*%
D17*
%TO.C,RV3*%
X108195216Y-114005011D03*
D18*
X109345216Y-111255011D03*
D19*
X108195216Y-116755011D03*
D18*
X107045216Y-111255011D03*
%TD*%
D17*
%TO.C,RV1*%
X84203957Y-114002886D03*
D18*
X85353957Y-111252886D03*
D19*
X84203957Y-116752886D03*
D18*
X83053957Y-111252886D03*
%TD*%
%LPD*%
M02*
