%TF.GenerationSoftware,KiCad,Pcbnew,7.0.2*%
%TF.CreationDate,2023-09-14T23:52:52-06:00*%
%TF.ProjectId,Auxilliary,41757869-6c6c-4696-9172-792e6b696361,rev?*%
%TF.SameCoordinates,Original*%
%TF.FileFunction,Legend,Bot*%
%TF.FilePolarity,Positive*%
%FSLAX46Y46*%
G04 Gerber Fmt 4.6, Leading zero omitted, Abs format (unit mm)*
G04 Created by KiCad (PCBNEW 7.0.2) date 2023-09-14 23:52:52*
%MOMM*%
%LPD*%
G01*
G04 APERTURE LIST*
G04 Aperture macros list*
%AMRoundRect*
0 Rectangle with rounded corners*
0 $1 Rounding radius*
0 $2 $3 $4 $5 $6 $7 $8 $9 X,Y pos of 4 corners*
0 Add a 4 corners polygon primitive as box body*
4,1,4,$2,$3,$4,$5,$6,$7,$8,$9,$2,$3,0*
0 Add four circle primitives for the rounded corners*
1,1,$1+$1,$2,$3*
1,1,$1+$1,$4,$5*
1,1,$1+$1,$6,$7*
1,1,$1+$1,$8,$9*
0 Add four rect primitives between the rounded corners*
20,1,$1+$1,$2,$3,$4,$5,0*
20,1,$1+$1,$4,$5,$6,$7,0*
20,1,$1+$1,$6,$7,$8,$9,0*
20,1,$1+$1,$8,$9,$2,$3,0*%
G04 Aperture macros list end*
%ADD10C,0.150000*%
%ADD11C,0.120000*%
%ADD12C,2.000000*%
%ADD13R,1.700000X1.700000*%
%ADD14O,1.700000X1.700000*%
%ADD15RoundRect,0.135000X-0.185000X0.135000X-0.185000X-0.135000X0.185000X-0.135000X0.185000X0.135000X0*%
%ADD16RoundRect,0.140000X-0.170000X0.140000X-0.170000X-0.140000X0.170000X-0.140000X0.170000X0.140000X0*%
G04 APERTURE END LIST*
D10*
%TO.C,R1*%
G36*
X145117075Y-81969486D02*
G01*
X144710654Y-81969486D01*
X144710654Y-82035432D01*
X144710685Y-82039284D01*
X144711143Y-82050544D01*
X144712150Y-82061358D01*
X144713707Y-82071725D01*
X144715814Y-82081645D01*
X144718470Y-82091119D01*
X144721636Y-82100241D01*
X144726154Y-82110558D01*
X144731560Y-82120524D01*
X144736901Y-82128787D01*
X144742894Y-82136793D01*
X144747199Y-82142032D01*
X144754229Y-82149849D01*
X144761945Y-82157614D01*
X144770349Y-82165328D01*
X144777877Y-82171717D01*
X144785881Y-82178070D01*
X144794310Y-82184428D01*
X144803264Y-82190835D01*
X144812743Y-82197289D01*
X144822747Y-82203791D01*
X144831127Y-82209027D01*
X144839844Y-82214294D01*
X144848896Y-82219591D01*
X145117075Y-82376883D01*
X145117075Y-82567881D01*
X144836195Y-82392759D01*
X144834158Y-82391435D01*
X144824205Y-82384919D01*
X144814647Y-82378583D01*
X144805482Y-82372426D01*
X144796710Y-82366447D01*
X144788332Y-82360648D01*
X144778798Y-82353924D01*
X144775705Y-82351725D01*
X144766678Y-82345116D01*
X144758028Y-82338490D01*
X144749756Y-82331847D01*
X144741862Y-82325187D01*
X144734346Y-82318509D01*
X144731908Y-82316272D01*
X144724653Y-82309457D01*
X144717483Y-82302487D01*
X144710399Y-82295363D01*
X144703401Y-82288085D01*
X144696488Y-82280652D01*
X144694180Y-82278151D01*
X144687406Y-82270317D01*
X144680854Y-82261985D01*
X144674526Y-82253155D01*
X144668420Y-82243827D01*
X144662539Y-82234001D01*
X144659852Y-82234001D01*
X144656448Y-82246366D01*
X144652708Y-82258425D01*
X144648632Y-82270180D01*
X144644220Y-82281629D01*
X144639473Y-82292772D01*
X144634390Y-82303610D01*
X144628970Y-82314143D01*
X144623215Y-82324371D01*
X144617140Y-82334259D01*
X144610759Y-82343773D01*
X144604073Y-82352913D01*
X144597081Y-82361679D01*
X144589785Y-82370071D01*
X144582183Y-82378089D01*
X144574275Y-82385733D01*
X144566063Y-82393003D01*
X144557491Y-82399941D01*
X144548630Y-82406467D01*
X144539478Y-82412581D01*
X144530037Y-82418282D01*
X144520305Y-82423572D01*
X144510284Y-82428449D01*
X144499972Y-82432914D01*
X144489370Y-82436967D01*
X144478433Y-82440631D01*
X144467236Y-82443806D01*
X144455779Y-82446492D01*
X144444063Y-82448691D01*
X144432088Y-82450400D01*
X144419853Y-82451622D01*
X144407358Y-82452354D01*
X144394604Y-82452599D01*
X144386456Y-82452503D01*
X144374478Y-82452002D01*
X144362792Y-82451072D01*
X144351397Y-82449712D01*
X144340294Y-82447924D01*
X144329484Y-82445705D01*
X144318965Y-82443058D01*
X144308738Y-82439981D01*
X144298804Y-82436475D01*
X144289161Y-82432539D01*
X144279810Y-82428174D01*
X144273736Y-82425048D01*
X144264862Y-82420083D01*
X144256271Y-82414787D01*
X144247964Y-82409160D01*
X144239939Y-82403203D01*
X144232198Y-82396916D01*
X144224741Y-82390298D01*
X144217567Y-82383349D01*
X144210676Y-82376069D01*
X144204069Y-82368459D01*
X144197744Y-82360519D01*
X144193689Y-82355056D01*
X144187852Y-82346640D01*
X144182311Y-82337957D01*
X144177067Y-82329008D01*
X144172119Y-82319793D01*
X144167467Y-82310312D01*
X144163112Y-82300565D01*
X144159052Y-82290552D01*
X144155289Y-82280272D01*
X144151822Y-82269726D01*
X144148652Y-82258914D01*
X144146670Y-82251574D01*
X144143937Y-82240404D01*
X144141492Y-82229040D01*
X144139335Y-82217483D01*
X144137465Y-82205733D01*
X144135883Y-82193790D01*
X144134589Y-82181653D01*
X144133582Y-82169323D01*
X144132863Y-82156800D01*
X144132431Y-82144084D01*
X144132287Y-82131175D01*
X144132287Y-81969486D01*
X144264911Y-81969486D01*
X144264911Y-82106995D01*
X144264949Y-82112193D01*
X144265255Y-82122359D01*
X144265865Y-82132221D01*
X144267354Y-82146440D01*
X144269529Y-82159973D01*
X144272391Y-82172818D01*
X144275940Y-82184977D01*
X144280176Y-82196449D01*
X144285099Y-82207234D01*
X144290709Y-82217332D01*
X144297006Y-82226743D01*
X144303990Y-82235467D01*
X144308963Y-82240879D01*
X144316865Y-82248343D01*
X144325300Y-82255021D01*
X144334268Y-82260914D01*
X144343767Y-82266021D01*
X144353799Y-82270342D01*
X144364364Y-82273878D01*
X144375461Y-82276628D01*
X144387090Y-82278592D01*
X144399251Y-82279770D01*
X144411945Y-82280163D01*
X144416710Y-82280112D01*
X144428371Y-82279532D01*
X144439675Y-82278308D01*
X144450620Y-82276441D01*
X144461208Y-82273929D01*
X144471438Y-82270774D01*
X144481310Y-82266974D01*
X144485121Y-82265315D01*
X144494330Y-82260808D01*
X144503086Y-82255788D01*
X144511389Y-82250256D01*
X144519239Y-82244211D01*
X144526635Y-82237653D01*
X144533578Y-82230582D01*
X144536226Y-82227647D01*
X144542503Y-82220010D01*
X144548290Y-82211943D01*
X144553589Y-82203447D01*
X144558399Y-82194522D01*
X144562719Y-82185167D01*
X144566551Y-82175383D01*
X144567941Y-82171361D01*
X144571024Y-82161104D01*
X144573546Y-82150562D01*
X144575508Y-82139733D01*
X144576909Y-82128618D01*
X144577750Y-82117217D01*
X144578031Y-82105529D01*
X144578031Y-81969486D01*
X144264911Y-81969486D01*
X144132287Y-81969486D01*
X144132287Y-81806820D01*
X145117075Y-81806820D01*
X145117075Y-81969486D01*
G37*
G36*
X144116656Y-82979186D02*
G01*
X145117075Y-82979186D01*
X145117075Y-82819696D01*
X144308631Y-82819696D01*
X144314274Y-82811532D01*
X144319753Y-82803252D01*
X144325070Y-82794856D01*
X144330223Y-82786345D01*
X144335214Y-82777717D01*
X144340041Y-82768974D01*
X144344705Y-82760115D01*
X144349206Y-82751140D01*
X144353543Y-82742048D01*
X144357718Y-82732841D01*
X144360410Y-82726639D01*
X144364351Y-82717174D01*
X144368207Y-82707465D01*
X144371976Y-82697511D01*
X144375660Y-82687312D01*
X144379258Y-82676869D01*
X144382770Y-82666180D01*
X144386196Y-82655247D01*
X144389536Y-82644070D01*
X144392790Y-82632647D01*
X144395959Y-82620980D01*
X144398024Y-82613066D01*
X144261980Y-82613066D01*
X144258786Y-82622977D01*
X144255554Y-82632804D01*
X144252283Y-82642547D01*
X144248974Y-82652206D01*
X144245627Y-82661781D01*
X144242242Y-82671272D01*
X144238819Y-82680679D01*
X144235358Y-82690003D01*
X144231824Y-82699265D01*
X144228183Y-82708489D01*
X144224436Y-82717675D01*
X144220581Y-82726822D01*
X144216620Y-82735932D01*
X144212552Y-82745003D01*
X144208377Y-82754036D01*
X144204095Y-82763031D01*
X144199698Y-82772076D01*
X144195180Y-82781136D01*
X144190539Y-82790211D01*
X144185777Y-82799301D01*
X144180892Y-82808407D01*
X144175885Y-82817528D01*
X144170756Y-82826664D01*
X144165504Y-82835816D01*
X144160039Y-82845070D01*
X144154391Y-82854393D01*
X144148560Y-82863785D01*
X144142546Y-82873246D01*
X144136348Y-82882775D01*
X144129967Y-82892373D01*
X144123403Y-82902040D01*
X144116656Y-82911775D01*
X144116656Y-82979186D01*
G37*
%TO.C,C1*%
G36*
X145103992Y-87286628D02*
G01*
X145110795Y-87272496D01*
X145117158Y-87257941D01*
X145123083Y-87242965D01*
X145128569Y-87227567D01*
X145133616Y-87211748D01*
X145138224Y-87195507D01*
X145142394Y-87178844D01*
X145146124Y-87161759D01*
X145149416Y-87144253D01*
X145152268Y-87126325D01*
X145154682Y-87107975D01*
X145156657Y-87089204D01*
X145158193Y-87070011D01*
X145158797Y-87060256D01*
X145159290Y-87050396D01*
X145159674Y-87040430D01*
X145159949Y-87030359D01*
X145160113Y-87020183D01*
X145160168Y-87009901D01*
X145160036Y-86996582D01*
X145159640Y-86983428D01*
X145158981Y-86970442D01*
X145158058Y-86957622D01*
X145156871Y-86944968D01*
X145155420Y-86932481D01*
X145153705Y-86920160D01*
X145151726Y-86908006D01*
X145149484Y-86896018D01*
X145146978Y-86884197D01*
X145144208Y-86872542D01*
X145141174Y-86861054D01*
X145137877Y-86849732D01*
X145134316Y-86838577D01*
X145130490Y-86827588D01*
X145126401Y-86816766D01*
X145122049Y-86806110D01*
X145117432Y-86795621D01*
X145112552Y-86785298D01*
X145107408Y-86775142D01*
X145102000Y-86765152D01*
X145096328Y-86755329D01*
X145090393Y-86745672D01*
X145084193Y-86736181D01*
X145077730Y-86726857D01*
X145071003Y-86717700D01*
X145064012Y-86708709D01*
X145056758Y-86699884D01*
X145049240Y-86691227D01*
X145041457Y-86682735D01*
X145033411Y-86674410D01*
X145025102Y-86666251D01*
X145016578Y-86658317D01*
X145007889Y-86650635D01*
X144999036Y-86643205D01*
X144990019Y-86636026D01*
X144980836Y-86629100D01*
X144971489Y-86622425D01*
X144961978Y-86616002D01*
X144952302Y-86609831D01*
X144942462Y-86603912D01*
X144932456Y-86598245D01*
X144922287Y-86592830D01*
X144911952Y-86587666D01*
X144901454Y-86582755D01*
X144890790Y-86578095D01*
X144879962Y-86573687D01*
X144868970Y-86569531D01*
X144857812Y-86565627D01*
X144846491Y-86561975D01*
X144835004Y-86558575D01*
X144823353Y-86555426D01*
X144811538Y-86552530D01*
X144799558Y-86549885D01*
X144787413Y-86547492D01*
X144775104Y-86545351D01*
X144762630Y-86543462D01*
X144749992Y-86541825D01*
X144737189Y-86540440D01*
X144724221Y-86539306D01*
X144711089Y-86538425D01*
X144697792Y-86537795D01*
X144684331Y-86537417D01*
X144670705Y-86537291D01*
X144656048Y-86537433D01*
X144641567Y-86537859D01*
X144627263Y-86538569D01*
X144613137Y-86539562D01*
X144599187Y-86540839D01*
X144585414Y-86542400D01*
X144571818Y-86544245D01*
X144558399Y-86546374D01*
X144545158Y-86548787D01*
X144532093Y-86551483D01*
X144519205Y-86554463D01*
X144506494Y-86557728D01*
X144493960Y-86561275D01*
X144481603Y-86565107D01*
X144469423Y-86569223D01*
X144457420Y-86573622D01*
X144445594Y-86578306D01*
X144433945Y-86583273D01*
X144422473Y-86588524D01*
X144411178Y-86594059D01*
X144400060Y-86599877D01*
X144389119Y-86605980D01*
X144378355Y-86612366D01*
X144367768Y-86619036D01*
X144357358Y-86625990D01*
X144347125Y-86633228D01*
X144337068Y-86640750D01*
X144327189Y-86648555D01*
X144317487Y-86656645D01*
X144307962Y-86665018D01*
X144298614Y-86673675D01*
X144289442Y-86682616D01*
X144280501Y-86691773D01*
X144271844Y-86701080D01*
X144263471Y-86710536D01*
X144255382Y-86720141D01*
X144247576Y-86729896D01*
X144240055Y-86739800D01*
X144232817Y-86749853D01*
X144225863Y-86760056D01*
X144219193Y-86770408D01*
X144212806Y-86780909D01*
X144206704Y-86791560D01*
X144200885Y-86802360D01*
X144195350Y-86813309D01*
X144190099Y-86824407D01*
X144185132Y-86835655D01*
X144180449Y-86847052D01*
X144176049Y-86858599D01*
X144171934Y-86870294D01*
X144168102Y-86882140D01*
X144164554Y-86894134D01*
X144161290Y-86906278D01*
X144158310Y-86918571D01*
X144155613Y-86931013D01*
X144153201Y-86943605D01*
X144151072Y-86956345D01*
X144149227Y-86969236D01*
X144147666Y-86982275D01*
X144146388Y-86995464D01*
X144145395Y-87008802D01*
X144144685Y-87022290D01*
X144144260Y-87035927D01*
X144144118Y-87049713D01*
X144144276Y-87067382D01*
X144144751Y-87084670D01*
X144145543Y-87101576D01*
X144146652Y-87118101D01*
X144148077Y-87134244D01*
X144149819Y-87150005D01*
X144151878Y-87165385D01*
X144154254Y-87180383D01*
X144156946Y-87194999D01*
X144159955Y-87209234D01*
X144163281Y-87223087D01*
X144166924Y-87236559D01*
X144170883Y-87249648D01*
X144175160Y-87262357D01*
X144179752Y-87274683D01*
X144184662Y-87286628D01*
X144347328Y-87286628D01*
X144340111Y-87274092D01*
X144333360Y-87261395D01*
X144327075Y-87248538D01*
X144321255Y-87235521D01*
X144315901Y-87222343D01*
X144311012Y-87209005D01*
X144306589Y-87195507D01*
X144302631Y-87181848D01*
X144299139Y-87168029D01*
X144296113Y-87154050D01*
X144293552Y-87139911D01*
X144291457Y-87125611D01*
X144289828Y-87111151D01*
X144288664Y-87096531D01*
X144287965Y-87081751D01*
X144287733Y-87066810D01*
X144287832Y-87056870D01*
X144288131Y-87047049D01*
X144289328Y-87027761D01*
X144291322Y-87008947D01*
X144294113Y-86990606D01*
X144297703Y-86972738D01*
X144302089Y-86955343D01*
X144307274Y-86938422D01*
X144313256Y-86921974D01*
X144320036Y-86905999D01*
X144327613Y-86890497D01*
X144335988Y-86875468D01*
X144345160Y-86860913D01*
X144355130Y-86846831D01*
X144365898Y-86833222D01*
X144377463Y-86820086D01*
X144389826Y-86807424D01*
X144402855Y-86795416D01*
X144416418Y-86784183D01*
X144430515Y-86773724D01*
X144445147Y-86764040D01*
X144460313Y-86755131D01*
X144476013Y-86746997D01*
X144492248Y-86739637D01*
X144509017Y-86733052D01*
X144526320Y-86727242D01*
X144544157Y-86722206D01*
X144562529Y-86717945D01*
X144581435Y-86714459D01*
X144600875Y-86711747D01*
X144610795Y-86710682D01*
X144620849Y-86709811D01*
X144631037Y-86709133D01*
X144641358Y-86708649D01*
X144651813Y-86708358D01*
X144662401Y-86708261D01*
X144672488Y-86708352D01*
X144682445Y-86708623D01*
X144692273Y-86709075D01*
X144711542Y-86710521D01*
X144730293Y-86712691D01*
X144748527Y-86715584D01*
X144766245Y-86719199D01*
X144783445Y-86723539D01*
X144800128Y-86728601D01*
X144816293Y-86734386D01*
X144831942Y-86740895D01*
X144847074Y-86748127D01*
X144861688Y-86756082D01*
X144875786Y-86764760D01*
X144889366Y-86774162D01*
X144902429Y-86784286D01*
X144914975Y-86795134D01*
X144921054Y-86800829D01*
X144932707Y-86812659D01*
X144943609Y-86824944D01*
X144953758Y-86837686D01*
X144963156Y-86850884D01*
X144971801Y-86864538D01*
X144979695Y-86878647D01*
X144986838Y-86893213D01*
X144993228Y-86908235D01*
X144998867Y-86923713D01*
X145003753Y-86939647D01*
X145007888Y-86956037D01*
X145011271Y-86972883D01*
X145013903Y-86990185D01*
X145015782Y-87007943D01*
X145016910Y-87026158D01*
X145017286Y-87044828D01*
X145017050Y-87062116D01*
X145016343Y-87079113D01*
X145015165Y-87095821D01*
X145013515Y-87112239D01*
X145011395Y-87128367D01*
X145008802Y-87144204D01*
X145005739Y-87159752D01*
X145002204Y-87175009D01*
X144998198Y-87189977D01*
X144993720Y-87204654D01*
X144988772Y-87219042D01*
X144983351Y-87233139D01*
X144977460Y-87246946D01*
X144971097Y-87260464D01*
X144964263Y-87273691D01*
X144956958Y-87286628D01*
X145103992Y-87286628D01*
G37*
G36*
X144144118Y-87770229D02*
G01*
X145144537Y-87770229D01*
X145144537Y-87610739D01*
X144336093Y-87610739D01*
X144341736Y-87602575D01*
X144347215Y-87594295D01*
X144352532Y-87585900D01*
X144357685Y-87577388D01*
X144362676Y-87568761D01*
X144367503Y-87560017D01*
X144372167Y-87551158D01*
X144376668Y-87542183D01*
X144381005Y-87533092D01*
X144385180Y-87523884D01*
X144387872Y-87517682D01*
X144391813Y-87508217D01*
X144395669Y-87498508D01*
X144399438Y-87488554D01*
X144403122Y-87478355D01*
X144406720Y-87467912D01*
X144410232Y-87457223D01*
X144413658Y-87446290D01*
X144416998Y-87435113D01*
X144420252Y-87423690D01*
X144423421Y-87412023D01*
X144425486Y-87404109D01*
X144289442Y-87404109D01*
X144286248Y-87414020D01*
X144283016Y-87423847D01*
X144279745Y-87433590D01*
X144276436Y-87443249D01*
X144273089Y-87452824D01*
X144269704Y-87462315D01*
X144266281Y-87471722D01*
X144262820Y-87481046D01*
X144259286Y-87490308D01*
X144255645Y-87499532D01*
X144251898Y-87508718D01*
X144248043Y-87517865D01*
X144244082Y-87526975D01*
X144240014Y-87536046D01*
X144235839Y-87545079D01*
X144231557Y-87554074D01*
X144227160Y-87563119D01*
X144222642Y-87572179D01*
X144218001Y-87581254D01*
X144213239Y-87590344D01*
X144208354Y-87599450D01*
X144203347Y-87608571D01*
X144198218Y-87617707D01*
X144192966Y-87626859D01*
X144187501Y-87636113D01*
X144181853Y-87645436D01*
X144176022Y-87654828D01*
X144170008Y-87664289D01*
X144163810Y-87673818D01*
X144157429Y-87683416D01*
X144150865Y-87693083D01*
X144144118Y-87702818D01*
X144144118Y-87770229D01*
G37*
D11*
%TO.C,SW1*%
X134700000Y-85550000D02*
X134700000Y-84050000D01*
X135950000Y-81550000D02*
X140450000Y-81550000D01*
X140450000Y-88050000D02*
X135950000Y-88050000D01*
X141700000Y-84050000D02*
X141700000Y-85550000D01*
%TO.C,J3*%
X156820000Y-82220000D02*
X156820000Y-87420000D01*
X151620000Y-82220000D02*
X156820000Y-82220000D01*
X151620000Y-82220000D02*
X151620000Y-84820000D01*
X154220000Y-84820000D02*
X154220000Y-87420000D01*
X151620000Y-84820000D02*
X154220000Y-84820000D01*
X151620000Y-86090000D02*
X151620000Y-87420000D01*
X154220000Y-87420000D02*
X156820000Y-87420000D01*
X151620000Y-87420000D02*
X152950000Y-87420000D01*
%TO.C,R1*%
X143220000Y-82246359D02*
X143220000Y-82553641D01*
X143980000Y-82246359D02*
X143980000Y-82553641D01*
%TO.C,C1*%
X143960000Y-87092164D02*
X143960000Y-87307836D01*
X143240000Y-87092164D02*
X143240000Y-87307836D01*
%TD*%
%LPC*%
D12*
%TO.C,SW1*%
X134950000Y-87050000D03*
X141450000Y-87050000D03*
X134950000Y-82550000D03*
X141450000Y-82550000D03*
%TD*%
D13*
%TO.C,J3*%
X152950000Y-86090000D03*
D14*
X152950000Y-83550000D03*
X155490000Y-86090000D03*
X155490000Y-83550000D03*
%TD*%
D15*
%TO.C,R1*%
X143600000Y-82910000D03*
X143600000Y-81890000D03*
%TD*%
D16*
%TO.C,C1*%
X143600000Y-86720000D03*
X143600000Y-87680000D03*
%TD*%
%LPD*%
M02*
